# xmcd
#
# Track frame offsets: 
#        150
#        16969
#        32884
#        53330
#        71360
#        89922
#        106909
#        124660
#        142597
#        157784
#        176688
#        195073
#
# Disc length: 2791 seconds
#
# Revision: 0
# Processed by: cddbd v1.5.2PL0 Copyright (c) Steve Scherf et al.
# Submitted via: ExactAudioCopy v1.3
#
DISCID=890ae50c
DTITLE=Caitlyn Smith - Starfire
DYEAR=2018
DGENRE=Singer/Songwriter
TTITLE0=Before You Called Me Baby
TTITLE1=Do You Think About Me
TTITLE2=Starfire
TTITLE3=East Side Restaurant
TTITLE4=Don't Give Up On My Love
TTITLE5=This Town Is Killing Me
TTITLE6=St. Paul
TTITLE7=Tacoma
TTITLE8=Scenes From a Corner Booth At Closing Time On A Tuesday
TTITLE9=Contact High
TTITLE10=House of Cards
TTITLE11=Cheap Date
EXTD=
EXTT0=
EXTT1=
EXTT2=
EXTT3=
EXTT4=
EXTT5=
EXTT6=
EXTT7=
EXTT8=
EXTT9=
EXTT10=
EXTT11=
PLAYORDER=
